<svg width="425" height="170" viewBox="0 0 425 170" fill="none" xmlns="http://www.w3.org/2000/svg">
<g clip-path="url(#clip0_1454_1198)">
<path d="M36.5638 0C12.4747 23.6709 0 53.7975 0 85.2152C0 118.354 12.9049 150.203 36.1336 170C37.4241 170 40.8654 166.557 40.8654 165.696C24.9494 142.456 16.3462 112.759 16.3462 84.7848C16.3462 56.8101 24.9494 27.1139 40.8654 3.87342C41.2955 2.58228 37.4241 0 36.5638 0Z" fill="white"/>
<path d="M64.9543 58.962C64.5241 59.3924 64.5241 63.6962 64.9543 64.1266C73.5575 67.5696 73.9877 68.4304 73.9877 75.3165V116.633C73.9877 126.101 71.4067 126.962 66.6749 127.392H62.8034C61.9431 128.253 61.9431 132.987 62.8034 133.848C69.686 133.848 77.429 133.418 86.0322 133.418C94.2053 133.418 101.948 133.418 108.401 133.848C109.261 133.418 109.261 128.253 108.401 127.392H105.389C99.7974 126.962 97.2164 126.101 97.2164 117.063V74.4557C97.2164 70.1519 97.6466 52.9367 97.6466 49.924C97.6466 48.6329 96.7862 47.7722 95.4958 47.7722C94.2053 47.7722 87.7528 51.2152 82.5909 52.9367C76.9988 55.519 70.5464 57.6709 64.9543 58.962ZM85.602 0C78.2893 0 72.267 6.02532 72.267 13.3418C72.267 20.6582 78.2893 26.6835 85.602 26.6835C92.9148 26.6835 98.937 20.6582 98.937 13.3418C98.937 6.02532 92.9148 0 85.602 0Z" fill="white"/>
<path d="M145.396 105.013C136.793 105.013 129.91 111.899 129.91 120.506C129.91 129.114 136.793 136 145.396 136C153.999 136 160.882 129.114 160.882 120.506C160.882 111.899 153.999 105.013 145.396 105.013Z" fill="white"/>
<path d="M250.784 84.3539C252.505 84.3539 253.365 83.9235 254.226 82.6324C255.086 81.7716 255.086 80.9109 255.086 80.0501C255.086 63.2653 244.762 49.4932 224.545 49.4932C199.165 49.4932 182.389 70.5818 182.389 94.683C182.389 116.202 196.154 135.999 221.103 135.999C234.868 135.999 248.634 128.253 256.807 113.189C256.807 111.468 253.796 108.886 252.935 109.316C246.913 117.063 239.6 119.215 232.287 119.215C212.5 119.215 203.897 102.86 203.897 88.2273C203.897 85.2147 204.757 84.3539 207.768 84.3539H250.784V84.3539ZM204.757 75.7463C206.048 66.7084 212.5 57.24 222.394 57.24C230.137 57.24 234.438 63.6957 234.438 70.5818C234.438 75.3159 233.148 76.1767 230.137 76.6071C227.556 77.0375 224.114 77.0375 217.662 77.0375H206.048C204.757 77.0375 204.757 76.1767 204.757 75.7463Z" fill="white"/>
<path d="M294.23 104.582C285.627 104.582 278.744 111.468 278.744 120.076C278.744 128.683 285.627 135.569 294.23 135.569C302.833 135.569 309.716 128.683 309.716 120.076C309.716 111.468 302.833 104.582 294.23 104.582Z" fill="white"/>
<path d="M330.793 164.405C348.43 160.101 363.916 148.481 363.916 128.253C363.916 113.62 354.882 105.013 344.558 105.013C336.815 105.013 330.363 111.468 330.363 118.785C330.363 123.519 332.944 126.532 335.955 127.823C341.117 129.975 348 131.266 348 140.304C348 150.633 336.385 156.658 328.212 159.241C326.922 159.241 328.642 163.975 330.793 164.405Z" fill="white"/>
<path d="M388.435 0C387.144 0 383.703 2.58228 383.703 3.44304C399.619 26.6835 408.222 56.8101 408.222 84.3544C408.222 112.329 399.619 142.456 383.703 165.266C383.703 166.127 387.575 169.57 388.435 169.57C412.094 149.772 424.568 117.494 424.568 84.7848C424.999 53.7975 412.094 23.6709 388.435 0Z" fill="white"/>
</g>
<defs>
<clipPath id="clip0_1454_1198">
<rect width="425" height="170" fill="white"/>
</clipPath>
</defs>
</svg>
